G04*
G04 #@! TF.GenerationSoftware,Altium Limited,CircuitStudio,1.5.2 (30)*
G04*
G04 Layer_Color=16740166*
%FSLAX25Y25*%
%MOIN*%
G70*
G01*
G75*
%ADD90C,0.00000*%
D90*
X350057Y502617D02*
G03*
X348876Y501435I0J-1182D01*
G01*
D02*
G03*
X350057Y500254I1181J0D01*
G01*
X351041D02*
G03*
X352222Y501435I0J1181D01*
G01*
D02*
G03*
X351041Y502617I-1182J0D01*
G01*
X350057Y519546D02*
G03*
X348876Y518365I0J-1181D01*
G01*
D02*
G03*
X350057Y517183I1182J-0D01*
G01*
X351041D02*
G03*
X352222Y518365I-0J1182D01*
G01*
D02*
G03*
X351041Y519546I-1181J0D01*
G01*
X331159Y502617D02*
G03*
X329978Y501435I0J-1182D01*
G01*
D02*
G03*
X331159Y500254I1181J0D01*
G01*
X332143D02*
G03*
X333324Y501435I0J1181D01*
G01*
D02*
G03*
X332143Y502617I-1182J0D01*
G01*
X331159Y519546D02*
G03*
X329978Y518365I0J-1181D01*
G01*
D02*
G03*
X331159Y517183I1182J-0D01*
G01*
X332143D02*
G03*
X333324Y518365I-0J1182D01*
G01*
D02*
G03*
X332143Y519546I-1181J0D01*
G01*
X355470Y510924D02*
G03*
X354446Y509900I0J-1024D01*
G01*
D02*
G03*
X355470Y508876I1024J0D01*
G01*
X356257D02*
G03*
X357281Y509900I0J1024D01*
G01*
D02*
G03*
X356257Y510924I-1024J0D01*
G01*
X350057Y500254D02*
X351041D01*
X350057Y502617D02*
X351041D01*
X350057Y517183D02*
X351041D01*
X350057Y519546D02*
X351041D01*
X331159Y500254D02*
X332143D01*
X331159Y502617D02*
X332143D01*
X331159Y517183D02*
X332143D01*
X331159Y519546D02*
X332143D01*
X355470Y508876D02*
X356257D01*
X355470Y510924D02*
X356257D01*
M02*
