G04*
G04 #@! TF.GenerationSoftware,Altium Limited,CircuitStudio,1.5.2 (30)*
G04*
G04 Layer_Color=16755269*
%FSLAX25Y25*%
%MOIN*%
G70*
G01*
G75*
%ADD49C,0.00500*%
%ADD85C,0.00787*%
D49*
X233567Y409685D02*
X254433D01*
X233567Y430315D02*
X254433D01*
X268160Y481525D02*
X279578D01*
X268160Y471879D02*
X279578D01*
X268160Y493169D02*
X279578D01*
X268160Y483523D02*
X279578D01*
X333220Y459566D02*
X334402D01*
X359598D02*
X360780D01*
X333220Y487126D02*
X334402D01*
X359598D02*
X360780D01*
X333220Y459566D02*
Y460748D01*
X360780Y459566D02*
Y460748D01*
X333220Y485944D02*
Y487126D01*
X360780Y485944D02*
Y487126D01*
X269519Y468393D02*
Y468786D01*
X276211Y468393D02*
Y468786D01*
Y456582D02*
Y456975D01*
X269519Y456582D02*
Y456975D01*
Y456582D02*
X276211D01*
X269519Y468786D02*
X276211D01*
X267520Y413307D02*
Y426693D01*
X278937Y428661D02*
Y431811D01*
X275492D02*
X278937D01*
Y408189D02*
Y411339D01*
X275492Y408189D02*
X278937D01*
D85*
X224374Y429862D02*
G03*
X224374Y429862I-394J0D01*
G01*
X321809Y513443D02*
G03*
X321809Y513443I-394J0D01*
G01*
X264027Y476702D02*
G03*
X264027Y476702I-394J0D01*
G01*
Y488346D02*
G03*
X264027Y488346I-394J0D01*
G01*
X336567Y455787D02*
G03*
X336567Y455787I-394J0D01*
G01*
X263539Y466424D02*
G03*
X263539Y466424I-394J0D01*
G01*
X281004Y410157D02*
G03*
X281004Y410157I-394J0D01*
G01*
X355864Y503680D02*
X358698D01*
Y516120D01*
X355864D02*
X358698D01*
X323502Y503680D02*
X326336D01*
X323502D02*
Y516120D01*
X326336D01*
M02*
