G04*
G04 #@! TF.GenerationSoftware,Altium Limited,CircuitStudio,1.5.2 (30)*
G04*
G04 Layer_Color=8150272*
%FSLAX25Y25*%
%MOIN*%
G70*
G01*
G75*
%ADD72C,0.02847*%
%ADD73C,0.05131*%
%ADD74C,0.06800*%
%ADD75C,0.00800*%
%ADD76C,0.06706*%
%ADD77R,0.06706X0.06706*%
%ADD78C,0.05800*%
%ADD79C,0.04816*%
%ADD80C,0.11036*%
%ADD81C,0.30800*%
%ADD82C,0.02769*%
%ADD83C,0.04800*%
%ADD84C,0.03950*%
D72*
X355864Y509900D02*
D03*
X326336D02*
D03*
D73*
X350549Y501435D02*
D03*
Y518365D02*
D03*
X331651Y501435D02*
D03*
Y518365D02*
D03*
D74*
X473500Y461289D02*
D03*
Y473100D02*
D03*
Y484911D02*
D03*
X465783Y449478D02*
D03*
X465469Y496722D02*
D03*
X449000Y490817D02*
D03*
Y479006D02*
D03*
Y467195D02*
D03*
X456716Y502628D02*
D03*
X457031Y443573D02*
D03*
X449000Y455383D02*
D03*
D75*
X385976Y456565D02*
D03*
X390700D02*
D03*
X395424D02*
D03*
X385976Y461289D02*
D03*
X390700D02*
D03*
X395424D02*
D03*
X385976Y466013D02*
D03*
X390700D02*
D03*
X395424D02*
D03*
X385976Y489636D02*
D03*
X390700D02*
D03*
X395424D02*
D03*
X385976Y484911D02*
D03*
X390700D02*
D03*
X395424D02*
D03*
X385976Y480187D02*
D03*
X390700D02*
D03*
X395424D02*
D03*
X385976Y475462D02*
D03*
X390700D02*
D03*
X395424D02*
D03*
X385976Y470738D02*
D03*
X390700D02*
D03*
X395424D02*
D03*
D76*
X279538Y503500D02*
D03*
X269538D02*
D03*
X259538D02*
D03*
X249538D02*
D03*
D77*
X239538D02*
D03*
D78*
X205600Y467190D02*
D03*
Y490830D02*
D03*
Y479010D02*
D03*
Y455370D02*
D03*
X217400Y490830D02*
D03*
Y478992D02*
D03*
Y467181D02*
D03*
Y455370D02*
D03*
D79*
X201731Y443573D02*
D03*
X201732Y502628D02*
D03*
D80*
X211500Y499281D02*
D03*
Y446919D02*
D03*
D81*
X474500Y533000D02*
D03*
Y413000D02*
D03*
X204500D02*
D03*
Y533000D02*
D03*
D82*
X240400Y412500D02*
D03*
X249200Y417500D02*
D03*
X365000Y476846D02*
D03*
X356500Y480236D02*
D03*
X367500Y470500D02*
D03*
X374500Y487175D02*
D03*
X318500Y478032D02*
D03*
X300047Y461456D02*
D03*
X340110Y463907D02*
D03*
X398100Y505346D02*
D03*
D83*
X350500Y476846D02*
D03*
X343500D02*
D03*
X350500Y469846D02*
D03*
X343500Y470000D02*
D03*
D84*
X418000Y484616D02*
D03*
Y461584D02*
D03*
M02*
