G04*
G04 #@! TF.GenerationSoftware,Altium Limited,CircuitStudio,1.5.2 (30)*
G04*
G04 Layer_Color=11767835*
%FSLAX25Y25*%
%MOIN*%
G70*
G01*
G75*
%ADD35C,0.02047*%
%ADD36C,0.04331*%
%ADD37C,0.06000*%
%ADD38C,0.05906*%
%ADD39R,0.05906X0.05906*%
%ADD40C,0.05000*%
%ADD41C,0.04016*%
%ADD42C,0.10236*%
%ADD43C,0.30000*%
D35*
X355864Y509900D02*
D03*
X326336D02*
D03*
D36*
X350549Y501435D02*
D03*
Y518365D02*
D03*
X331651Y501435D02*
D03*
Y518365D02*
D03*
D37*
X473500Y461289D02*
D03*
Y473100D02*
D03*
Y484911D02*
D03*
X465783Y449478D02*
D03*
X465469Y496722D02*
D03*
X449000Y490817D02*
D03*
Y479006D02*
D03*
Y467195D02*
D03*
X456716Y502628D02*
D03*
X457031Y443573D02*
D03*
X449000Y455383D02*
D03*
D38*
X279538Y503500D02*
D03*
X269538D02*
D03*
X259538D02*
D03*
X249538D02*
D03*
D39*
X239538D02*
D03*
D40*
X205600Y467190D02*
D03*
Y490830D02*
D03*
Y479010D02*
D03*
Y455370D02*
D03*
X217400Y490830D02*
D03*
Y478992D02*
D03*
Y467181D02*
D03*
Y455370D02*
D03*
D41*
X201731Y443573D02*
D03*
X201732Y502628D02*
D03*
D42*
X211500Y499281D02*
D03*
Y446919D02*
D03*
D43*
X474500Y533000D02*
D03*
Y413000D02*
D03*
X204500D02*
D03*
Y533000D02*
D03*
M02*
