G04*
G04 #@! TF.GenerationSoftware,Altium Limited,CircuitStudio,1.5.2 (30)*
G04*
G04 Layer_Color=16755269*
%FSLAX25Y25*%
%MOIN*%
G70*
G01*
G75*
%ADD89C,0.00197*%
D89*
X262622Y408701D02*
Y431299D01*
X225378Y408701D02*
Y431299D01*
Y408701D02*
X262622D01*
X225378Y431299D02*
X262622D01*
X322517Y498286D02*
Y521514D01*
Y498286D02*
X359683D01*
Y521514D01*
X322517D02*
X359683D01*
X265168Y471627D02*
Y481777D01*
X282570D01*
Y471627D02*
Y481777D01*
X265168Y471627D02*
X282570D01*
X265168Y483271D02*
Y493421D01*
X282570D01*
Y483271D02*
Y493421D01*
X265168Y483271D02*
X282570D01*
X330839Y489507D02*
X363161D01*
X330839Y457185D02*
X363161D01*
X330839D02*
Y489507D01*
X363161Y457185D02*
Y489507D01*
X277196Y468590D02*
Y469771D01*
Y468590D02*
X281172D01*
Y456778D02*
Y468590D01*
X277196Y456778D02*
X281172D01*
X277196Y455597D02*
Y456778D01*
X268534Y455597D02*
X277196D01*
X268534D02*
Y456778D01*
X264558D02*
X268534D01*
X264558D02*
Y468590D01*
X268534D01*
Y469771D01*
X277196D01*
X265748Y405630D02*
X284252D01*
Y434370D01*
X265748D02*
X284252D01*
X265748Y405630D02*
Y434370D01*
M02*
