G04*
G04 #@! TF.GenerationSoftware,Altium Limited,CircuitStudio,1.5.2 (30)*
G04*
G04 Layer_Color=20142*
%FSLAX25Y25*%
%MOIN*%
G70*
G01*
G75*
%ADD51R,0.11666X0.03359*%
%ADD52R,0.03950X0.04343*%
G04:AMPARAMS|DCode=53|XSize=75.72mil|YSize=31.23mil|CornerRadius=6.9mil|HoleSize=0mil|Usage=FLASHONLY|Rotation=0.000|XOffset=0mil|YOffset=0mil|HoleType=Round|Shape=RoundedRectangle|*
%AMROUNDEDRECTD53*
21,1,0.07572,0.01742,0,0,0.0*
21,1,0.06191,0.03123,0,0,0.0*
1,1,0.01381,0.03096,-0.00871*
1,1,0.01381,-0.03096,-0.00871*
1,1,0.01381,-0.03096,0.00871*
1,1,0.01381,0.03096,0.00871*
%
%ADD53ROUNDEDRECTD53*%
%ADD54R,0.01981X0.04225*%
%ADD55R,0.03556X0.04343*%
G04:AMPARAMS|DCode=56|XSize=110.36mil|YSize=51.31mil|CornerRadius=0mil|HoleSize=0mil|Usage=FLASHONLY|Rotation=315.000|XOffset=0mil|YOffset=0mil|HoleType=Round|Shape=Rectangle|*
%AMROTATEDRECTD56*
4,1,4,-0.05716,0.02088,-0.02088,0.05716,0.05716,-0.02088,0.02088,-0.05716,-0.05716,0.02088,0.0*
%
%ADD56ROTATEDRECTD56*%

G04:AMPARAMS|DCode=57|XSize=110.36mil|YSize=51.31mil|CornerRadius=0mil|HoleSize=0mil|Usage=FLASHONLY|Rotation=225.000|XOffset=0mil|YOffset=0mil|HoleType=Round|Shape=Rectangle|*
%AMROTATEDRECTD57*
4,1,4,0.02088,0.05716,0.05716,0.02088,-0.02088,-0.05716,-0.05716,-0.02088,0.02088,0.05716,0.0*
%
%ADD57ROTATEDRECTD57*%

%ADD58R,0.14186X0.38989*%
%ADD59R,0.06981X0.02414*%
%ADD60R,0.02769X0.03162*%
%ADD61R,0.04343X0.03556*%
%ADD62R,0.04343X0.03950*%
G04:AMPARAMS|DCode=63|XSize=79.65mil|YSize=56.82mil|CornerRadius=16.21mil|HoleSize=0mil|Usage=FLASHONLY|Rotation=90.000|XOffset=0mil|YOffset=0mil|HoleType=Round|Shape=RoundedRectangle|*
%AMROUNDEDRECTD63*
21,1,0.07965,0.02441,0,0,90.0*
21,1,0.04724,0.05682,0,0,90.0*
1,1,0.03241,0.01221,0.02362*
1,1,0.03241,0.01221,-0.02362*
1,1,0.03241,-0.01221,-0.02362*
1,1,0.03241,-0.01221,0.02362*
%
%ADD63ROUNDEDRECTD63*%
%ADD64R,0.07493X0.05131*%
%ADD65R,0.14579X0.14579*%
G04:AMPARAMS|DCode=66|XSize=39.89mil|YSize=18.24mil|CornerRadius=5.28mil|HoleSize=0mil|Usage=FLASHONLY|Rotation=90.000|XOffset=0mil|YOffset=0mil|HoleType=Round|Shape=RoundedRectangle|*
%AMROUNDEDRECTD66*
21,1,0.03989,0.00768,0,0,90.0*
21,1,0.02933,0.01824,0,0,90.0*
1,1,0.01056,0.00384,0.01467*
1,1,0.01056,0.00384,-0.01467*
1,1,0.01056,-0.00384,-0.01467*
1,1,0.01056,-0.00384,0.01467*
%
%ADD66ROUNDEDRECTD66*%
G04:AMPARAMS|DCode=67|XSize=18.24mil|YSize=39.89mil|CornerRadius=5.28mil|HoleSize=0mil|Usage=FLASHONLY|Rotation=90.000|XOffset=0mil|YOffset=0mil|HoleType=Round|Shape=RoundedRectangle|*
%AMROUNDEDRECTD67*
21,1,0.01824,0.02933,0,0,90.0*
21,1,0.00768,0.03989,0,0,90.0*
1,1,0.01056,0.01467,0.00384*
1,1,0.01056,0.01467,-0.00384*
1,1,0.01056,-0.01467,-0.00384*
1,1,0.01056,-0.01467,0.00384*
%
%ADD67ROUNDEDRECTD67*%
G04:AMPARAMS|DCode=68|XSize=31.62mil|YSize=61.15mil|CornerRadius=5.77mil|HoleSize=0mil|Usage=FLASHONLY|Rotation=270.000|XOffset=0mil|YOffset=0mil|HoleType=Round|Shape=RoundedRectangle|*
%AMROUNDEDRECTD68*
21,1,0.03162,0.04961,0,0,270.0*
21,1,0.02008,0.06115,0,0,270.0*
1,1,0.01154,-0.02480,-0.01004*
1,1,0.01154,-0.02480,0.01004*
1,1,0.01154,0.02480,0.01004*
1,1,0.01154,0.02480,-0.01004*
%
%ADD68ROUNDEDRECTD68*%
%ADD69R,0.03162X0.02769*%
%ADD70R,0.07887X0.05524*%
%ADD71R,0.06902X0.03162*%
%ADD72C,0.02847*%
%ADD73C,0.05131*%
%ADD74C,0.06800*%
%ADD75C,0.00800*%
%ADD76C,0.06706*%
%ADD77R,0.06706X0.06706*%
%ADD78C,0.05800*%
%ADD79C,0.04816*%
%ADD80C,0.11036*%
%ADD81C,0.30800*%
%ADD82C,0.02769*%
%ADD83C,0.04800*%
%ADD84C,0.03950*%
G36*
X396802Y462903D02*
X384598D01*
Y483297D01*
X396802D01*
Y462903D01*
D02*
G37*
D51*
X315953Y446456D02*
D03*
Y451456D02*
D03*
Y456456D02*
D03*
Y461456D02*
D03*
Y466456D02*
D03*
X300047Y446456D02*
D03*
Y451456D02*
D03*
Y456456D02*
D03*
Y461456D02*
D03*
Y466456D02*
D03*
D52*
X252944Y435100D02*
D03*
X258456D02*
D03*
X379401Y497000D02*
D03*
X384913D02*
D03*
X253878Y476702D02*
D03*
X248366D02*
D03*
X220156Y510800D02*
D03*
X214644D02*
D03*
X258456Y442700D02*
D03*
X252944D02*
D03*
D53*
X258252Y427500D02*
D03*
Y422500D02*
D03*
Y417500D02*
D03*
Y412500D02*
D03*
X229748D02*
D03*
Y417500D02*
D03*
Y422500D02*
D03*
Y427500D02*
D03*
D54*
X346021Y506494D02*
D03*
X344053D02*
D03*
X336179D02*
D03*
X338147D02*
D03*
X342084D02*
D03*
X340116D02*
D03*
X351927D02*
D03*
X330273D02*
D03*
X346021Y513306D02*
D03*
X344053D02*
D03*
X336179D02*
D03*
X338147D02*
D03*
X342084D02*
D03*
X340116D02*
D03*
X351927D02*
D03*
X330273D02*
D03*
D55*
X402547Y511500D02*
D03*
X408453D02*
D03*
X408453Y505346D02*
D03*
X402547D02*
D03*
X402547Y499346D02*
D03*
X408453D02*
D03*
X330547Y495500D02*
D03*
X336453D02*
D03*
X236947Y476702D02*
D03*
X242853D02*
D03*
X202647Y510800D02*
D03*
X208553D02*
D03*
X239547Y442700D02*
D03*
X245453D02*
D03*
D56*
X432758Y462758D02*
D03*
X425242Y455242D02*
D03*
D57*
X432758Y482742D02*
D03*
X425242Y490258D02*
D03*
D58*
X390700Y473100D02*
D03*
D59*
X379401Y456466D02*
D03*
Y459025D02*
D03*
Y461584D02*
D03*
Y464143D02*
D03*
Y466702D02*
D03*
Y469262D02*
D03*
Y471820D02*
D03*
Y474380D02*
D03*
Y476939D02*
D03*
Y479498D02*
D03*
Y482057D02*
D03*
Y484616D02*
D03*
Y487175D02*
D03*
Y489734D02*
D03*
X401999D02*
D03*
Y487175D02*
D03*
Y484616D02*
D03*
Y482057D02*
D03*
Y479498D02*
D03*
Y476939D02*
D03*
Y474380D02*
D03*
Y471820D02*
D03*
Y469262D02*
D03*
Y466702D02*
D03*
Y464143D02*
D03*
Y461584D02*
D03*
Y459025D02*
D03*
Y456466D02*
D03*
D60*
X371000Y487175D02*
D03*
Y491112D02*
D03*
X366500D02*
D03*
Y487175D02*
D03*
X368450Y451069D02*
D03*
Y447132D02*
D03*
X372200Y451069D02*
D03*
Y447132D02*
D03*
X364700D02*
D03*
Y451069D02*
D03*
D61*
X341100Y527453D02*
D03*
Y521547D02*
D03*
X327000Y455550D02*
D03*
Y461456D02*
D03*
X386500Y517547D02*
D03*
Y523453D02*
D03*
X247901Y460322D02*
D03*
Y466227D02*
D03*
D62*
X327000Y476299D02*
D03*
Y481811D02*
D03*
X286700Y460944D02*
D03*
Y466456D02*
D03*
X413000Y484616D02*
D03*
Y490128D02*
D03*
D63*
X268200Y476702D02*
D03*
X279538D02*
D03*
X268200Y488346D02*
D03*
X279538D02*
D03*
D64*
X257401Y454810D02*
D03*
Y465440D02*
D03*
D65*
X347000Y473346D02*
D03*
D66*
X336173Y486929D02*
D03*
X338142D02*
D03*
X340110D02*
D03*
X342079D02*
D03*
X344047D02*
D03*
X346016D02*
D03*
X347984D02*
D03*
X349953D02*
D03*
X351921D02*
D03*
X353890D02*
D03*
X355858D02*
D03*
X357827D02*
D03*
Y459763D02*
D03*
X355858D02*
D03*
X353890D02*
D03*
X351921D02*
D03*
X349953D02*
D03*
X347984D02*
D03*
X346016D02*
D03*
X344047D02*
D03*
X342079D02*
D03*
X340110D02*
D03*
X338142D02*
D03*
X336173D02*
D03*
D67*
X333417Y462519D02*
D03*
Y464488D02*
D03*
Y466456D02*
D03*
Y468425D02*
D03*
Y470393D02*
D03*
Y472362D02*
D03*
Y474330D02*
D03*
Y476299D02*
D03*
Y478267D02*
D03*
Y480236D02*
D03*
Y482204D02*
D03*
Y484173D02*
D03*
X360583D02*
D03*
Y482204D02*
D03*
Y480236D02*
D03*
Y478267D02*
D03*
Y476299D02*
D03*
Y474330D02*
D03*
Y472362D02*
D03*
Y470393D02*
D03*
Y468425D02*
D03*
Y466456D02*
D03*
Y464488D02*
D03*
Y462519D02*
D03*
D68*
X277530Y466424D02*
D03*
Y458944D02*
D03*
X268200D02*
D03*
Y462684D02*
D03*
Y466424D02*
D03*
D69*
X405936Y448154D02*
D03*
X401999D02*
D03*
X409531Y461500D02*
D03*
X413469D02*
D03*
D70*
X270276Y431024D02*
D03*
Y408976D02*
D03*
D71*
X280217Y425906D02*
D03*
Y421969D02*
D03*
Y418031D02*
D03*
Y414094D02*
D03*
D72*
X355864Y509900D02*
D03*
X326336D02*
D03*
D73*
X350549Y501435D02*
D03*
Y518365D02*
D03*
X331651Y501435D02*
D03*
Y518365D02*
D03*
D74*
X473500Y461289D02*
D03*
Y473100D02*
D03*
Y484911D02*
D03*
X465783Y449478D02*
D03*
X465469Y496722D02*
D03*
X449000Y490817D02*
D03*
Y479006D02*
D03*
Y467195D02*
D03*
X456716Y502628D02*
D03*
X457031Y443573D02*
D03*
X449000Y455383D02*
D03*
D75*
X385976Y456565D02*
D03*
X390700D02*
D03*
X395424D02*
D03*
X385976Y461289D02*
D03*
X390700D02*
D03*
X395424D02*
D03*
X385976Y466013D02*
D03*
X390700D02*
D03*
X395424D02*
D03*
X385976Y489636D02*
D03*
X390700D02*
D03*
X395424D02*
D03*
X385976Y484911D02*
D03*
X390700D02*
D03*
X395424D02*
D03*
X385976Y480187D02*
D03*
X390700D02*
D03*
X395424D02*
D03*
X385976Y475462D02*
D03*
X390700D02*
D03*
X395424D02*
D03*
X385976Y470738D02*
D03*
X390700D02*
D03*
X395424D02*
D03*
D76*
X279538Y503500D02*
D03*
X269538D02*
D03*
X259538D02*
D03*
X249538D02*
D03*
D77*
X239538D02*
D03*
D78*
X205600Y467190D02*
D03*
Y490830D02*
D03*
Y479010D02*
D03*
Y455370D02*
D03*
X217400Y490830D02*
D03*
Y478992D02*
D03*
Y467181D02*
D03*
Y455370D02*
D03*
D79*
X201731Y443573D02*
D03*
X201732Y502628D02*
D03*
D80*
X211500Y499281D02*
D03*
Y446919D02*
D03*
D81*
X474500Y533000D02*
D03*
Y413000D02*
D03*
X204500D02*
D03*
Y533000D02*
D03*
D82*
X240400Y412500D02*
D03*
X249200Y417500D02*
D03*
X365000Y476846D02*
D03*
X356500Y480236D02*
D03*
X367500Y470500D02*
D03*
X374500Y487175D02*
D03*
X318500Y478032D02*
D03*
X300047Y461456D02*
D03*
X340110Y463907D02*
D03*
X398100Y505346D02*
D03*
D83*
X350500Y476846D02*
D03*
X343500D02*
D03*
X350500Y469846D02*
D03*
X343500Y470000D02*
D03*
D84*
X418000Y484616D02*
D03*
Y461584D02*
D03*
M02*
