M48
;Layer_Color=6321
;FILE_FORMAT=2:5
INCH,LZ
;TYPE=PLATED
T1F00S00C0.00787
T2F00S00C0.01181
T3F00S00C0.02362
T4F00S00C0.02800
T5F00S00C0.03000
T6F00S00C0.03543
T7F00S00C0.04016
T8F00S00C0.04200
T9F00S00C0.05000
T10F00S00C0.09488
T11F00S00C0.17000
;TYPE=NON_PLATED
T12F00S00C0.02047
%
T01
X0385976Y0456565
X03907
X0395424
Y0461289
X03907
X0385976
Y0466013
X03907
X0395424
Y0470738
Y0475462
Y0480187
Y0484911
Y0489636
X03907
X0385976
Y0484911
X03907
Y0480187
X0385976
Y0475462
Y0470738
X03907
Y0475462
T02
X02404Y04125
X02492Y04175
X0300047Y0461456
X034011Y0463907
X0418Y0461584
Y0484616
X03981Y0505346
X03745Y0487175
X0365Y0476846
X03675Y04705
X03565Y0480236
X03185Y0478032
T03
X0331651Y0501435
Y0518365
X0350549
Y0501435
T04
X03435Y047
X03435Y0476846
X03505
Y0469846
T05
X0449Y0455383
Y0467195
X04735Y0461289
Y04731
Y0484911
X0449Y0490817
Y0479006
T06
X0239538Y05035
X0249538
X0259538
X0269538
X0279538
T07
X0201731Y0443573
X0201732Y0502628
T08
X02056Y045537
X02174
Y0467181
X02056Y046719
Y047901
X02174Y0478992
Y049083
X02056
T09
X0457031Y0443573
X0465783Y0449478
X0465469Y0496722
X0456716Y0502628
T10
X02115Y0446919
Y0499281
T11
X02045Y0413
X04745
Y0533
X02045
T12
X0326336Y05099
X0355864
M30
